<?xml version="1.0" standalone="no"?>
<!DOCTYPE svg PUBLIC "-//W3C//DTD SVG 1.1//EN" "http://www.w3.org/Graphics/SVG/1.1/DTD/svg11.dtd" >
<!--
2013-9-30: Created.
-->
<svg>
<metadata>
Created by iconfont
</metadata>
<defs>

<font id="iconfont" horiz-adv-x="1024" >
  <font-face
    font-family="iconfont"
    font-weight="500"
    font-stretch="normal"
    units-per-em="1024"
    ascent="896"
    descent="-128"
  />
    <missing-glyph />
    
    <glyph glyph-name="x" unicode="x" horiz-adv-x="1001"
d="M281 543q-27 -1 -53 -1h-83q-18 0 -36.5 -6t-32.5 -18.5t-23 -32t-9 -45.5v-76h912v41q0 16 -0.5 30t-0.5 18q0 13 -5 29t-17 29.5t-31.5 22.5t-49.5 9h-133v-97h-438v97zM955 310v-52q0 -23 0.5 -52t0.5 -58t-10.5 -47.5t-26 -30t-33 -16t-31.5 -4.5q-14 -1 -29.5 -0.5
t-29.5 0.5h-32l-45 128h-439l-44 -128h-29h-34q-20 0 -45 1q-25 0 -41 9.5t-25.5 23t-13.5 29.5t-4 30v167h911zM163 247q-12 0 -21 -8.5t-9 -21.5t9 -21.5t21 -8.5q13 0 22 8.5t9 21.5t-9 21.5t-22 8.5zM316 123q-8 -26 -14 -48q-5 -19 -10.5 -37t-7.5 -25t-3 -15t1 -14.5
t9.5 -10.5t21.5 -4h37h67h81h80h64h36q23 0 34 12t2 38q-5 13 -9.5 30.5t-9.5 34.5q-5 19 -11 39h-368zM336 498v228q0 11 2.5 23t10 21.5t20.5 15.5t34 6h188q31 0 51.5 -14.5t20.5 -52.5v-227h-327z" />
    

    
    <glyph glyph-name="bianji" unicode="&#58891;" d="M841.7504 608.43306667l-152.7904 152.784 76.42666667 76.3936c25.32373333 25.2896 66.3264 25.2896 91.64906666 0l61.10933334-61.10826667c25.32373333-25.32266667 25.32373333-66.38933333 0-91.71093333l-76.3936-76.36053334zM397.87733333 164.57813333000001l-152.79146666 152.784 415.3696 412.10666667 152.78826666-152.78506667-415.36746666-412.1056zM122.34026667 39.28106666999997l92.96213333 248.30186666 151.51146667-151.5392-244.47253334-96.7616zM808.48853333-12.936533329999975c21.38666667 0 38.70506667-17.3184 38.70506667-38.70506667 0-21.3536-17.3184-38.672-38.70506667-38.672h-684.3424c-21.3536 0-38.67306667 17.31733333-38.67306666 38.672 0 21.38666667 17.31946667 38.70506667 38.67306666 38.70506667h684.3424z"  horiz-adv-x="1024" />

    
    <glyph glyph-name="jiantou" unicode="&#58931;" d="M972.88947093 598.53905565c15.21588053-19.5055808 16.49296747-43.95577707 2.84888427-54.60907627l-445.00448427-347.1163776c-3.07810453-2.41227413-12.96733653-8.35017813-14.64828693-10.21668907-16.58028907-18.32673173-40.41923093-23.8280256-53.2774144-12.2250976l-419.10255787 377.93017387c-12.85818347 11.6138432-9.88923093 35.9112256 6.69105814 54.28161813 16.58028907 18.35947733 40.41923093 23.8389408 53.3210752 12.2360128l381.4230592-343.9400352 435.47545706 339.6939968C934.30400533 625.2268807099999 957.706336 618.03372018 972.88947093 598.53905565z"  horiz-adv-x="1024" />

    
    <glyph glyph-name="guanbi" unicode="&#58933;" d="M511.57653333 857.38453333c-261.10293333 0-472.80106667-211.69813333-472.80106666-472.8s211.69813333-472.8 472.80106666-472.8c261.17653333 0 472.79893333 211.69813333 472.79893334 472.8 0 261.10186667-211.6224 472.8-472.79893334 472.8zM775.90933333 176.04266667000002c15.312-15.392 15.312-40.3232 0-55.75466667-7.7728-7.65546667-17.8528-11.5424-27.93493333-11.5424-10.08 0-20.08533333 3.888-27.85706667 11.5424l-208.50453333 208.5216-208.5056-208.5216c-7.77173333-7.65546667-17.8528-11.5424-27.93386667-11.5424s-20.08533333 3.888-27.85813333 11.5424c-15.31306667 15.4304-15.31306667 40.36266667 0 55.75466667l208.52586667 208.54186666-208.5248 208.54186667c-15.31306667 15.39093333-15.31306667 40.3232 0 55.75253333 15.39093333 15.3536 40.3232 15.3536 55.792 0l208.5056-208.52053333 208.50453333 208.52053333c15.392 15.3536 40.3232 15.3536 55.792 0 15.312-15.42826667 15.312-40.3616 0-55.75253333l-208.52693333-208.54186667 208.52586666-208.54186666z"  horiz-adv-x="1024" />

    
    <glyph glyph-name="arrowup" unicode="&#58965;" d="M396.53973333 501.504l-232.7936 0.23573333 348.95466667 348.944 349.5392-349.29173333-232.5536-0.12586667-0.06186667-582.00213333-232.85013333-0.65066667-0.23253333 582.89173334zM396.53973333 501.504z"  horiz-adv-x="1024" />

    
    <glyph glyph-name="arrowdown" unicode="&#58966;" d="M396.53973333 267.79306667000003v0l0.23253334 582.8896 232.85013333-0.65066667 0.06186667-582.00106667 232.5536-0.12693333-349.5392-349.28746667-348.95466667 348.94293334 232.7936 0.23573333zM396.53973333 267.79306667000003z"  horiz-adv-x="1024" />

    
    <glyph glyph-name="jia" unicode="&#58997;" d="M511.999-46.97c-12.057 0-21.83 9.774-21.83 21.83v818.644c0 12.055 9.774 21.83 21.83 21.83s21.83-9.775 21.83-21.83v-818.644c0-12.057-9.774-21.83-21.83-21.83zM921.322 362.353h-818.645c-12.055 0-21.83 9.774-21.83 21.83s9.775 21.83 21.83 21.83h818.645c12.057 0 21.83-9.774 21.83-21.83s-9.774-21.83-21.83-21.83z"  horiz-adv-x="1024" />

    
    <glyph glyph-name="guanbi1" unicode="&#58885;" d="M526.15382507 385.2399744L945.1745184 806.1577408c7.655968 7.6898048 7.626496 20.12993387-0.0633088 27.78590187-7.690896 7.65487573-20.12884267 7.62867947-27.78590187-0.0633088L498.4301408 413.089184 79.5338816 833.88142507c-7.655968 7.6898048-20.096096 7.71818453-27.78590187 0.0633088-7.6898048-7.655968-7.71818453-20.096096-0.0633088-27.78590187L470.70645653 385.2399744 51.684672-35.67670080000005c-7.65487573-7.6898048-7.62758827-20.12993387 0.0633088-27.78590187 3.83344107-3.81597653 8.84791467-5.7228736 13.861296-5.7228736 5.04285333 0 10.0857056 1.92981867 13.9246048 5.7861824l418.8962592 420.79114987 418.8962592-420.79114987c3.8399904-3.85636373 8.88175253-5.7861824 13.9246048-5.7861824 5.01338133 0 10.02894613 1.90689707 13.861296 5.7228736 7.6898048 7.655968 7.71818453 20.096096 0.0633088 27.78590187L526.15382507 385.2399744z"  horiz-adv-x="1024" />

    
    <glyph glyph-name="shanchu" unicode="&#58939;" d="M580.688 144v377.13493333c0 43.952 68.6624 43.952 68.6624 0v-377.13493333c0-43.95093333-68.6624-43.95093333-68.6624 0v0zM374.6432 144v377.13493333c0 43.952 68.69226667 43.952 68.69226667 0v-377.13493333c0-43.95093333-68.69226667-43.95093333-68.69226667 0v0zM958.41706667 692.5674666699999h-171.68426667v68.59733333c0 56.79253333-46.1696 102.83626667-101.95946667 102.83626667h-344.45866666c-56.88426667 0-103.02186667-46.04373333-103.02186667-102.83626667v-68.59733333h-171.6832c-44.01493333 0-44.01493333-68.53653333 0-68.53653334h892.80746667c43.9808 0 43.9808 68.53653333 0 68.53653334v0zM305.98186667 761.16373333c0 18.21333333 16.08746667 34.29866667 34.3296 34.29866667h344.45866666c18.24426667 0 33.26826667-13.93173333 33.26826667-34.29866667v-68.59733333h-412.0576v68.59733333zM752.3712-96h-480.74986667c-56.85226667 0-102.99093333 46.04373333-102.99093333 102.8352v514.29866667c0 20.36693333 16.08746667 34.29866667 34.3296 34.29866666 18.24426667 0 34.3296-13.93173333 34.3296-34.29866666v-514.29866667c0-18.18026667 16.1184-34.26773333 34.32853333-34.26773333h480.75093334c18.24426667 0 34.36053333 16.08853333 34.36053333 34.26773333v513.2384c0 45.01333333 68.6624 45.01333333 68.6624 0v-513.2384c0-56.7904-46.13866667-102.8352-103.02293333-102.8352z"  horiz-adv-x="1024" />

    
    <glyph glyph-name="jiantou1" unicode="&#58943;" d="M33.5407712 175.65704107l58.13689067-59.83203094 418.63320106 430.84520107 418.6397504-430.84520107 58.1357984 59.83203094L510.31086293 666.32772373 33.5407712 175.65704107zM33.5407712 175.65704107"  horiz-adv-x="1024" />

    
    <glyph glyph-name="yeguoditu" unicode="&#59042;" d="M374.66026667 508.06186667c-0.10453333-75.7696 63.20746667-138.80426667 138.66133333-138.0672s138.02026667 62.97813333 138.02026667 137.312c0.00853333 74.64106667-62.58453333 136.53653333-138.24 136.68053333-76.16213333 0.1632-138.336-60.88213333-138.44053334-135.92426667zM512.42133333-96c-100.5888 136.09706667-204.3168 267.11253333-297.74933333 404.97813333-150.20053333 221.6256-15.2896 511.1936 243.82293333 550.6816 226.86933333 34.56853333 421.9808-141.8848 413.22666667-369.73973333-2.7072-70.46933333-25.41333333-134.39253333-67.11146667-191.17013333-92.67733333-126.20266667-186.05226667-251.88053333-279.1584-377.75786667-3.7312-5.0624-7.6448-9.97973333-13.03146666-16.99306667z"  horiz-adv-x="1024" />

    
    <glyph glyph-name="jian" unicode="&#58998;" d="M921.014 346.623h-818.028c-20.636 0-37.381 16.744-37.381 37.373 0 20.636 16.745 37.382 37.381 37.382h818.028c20.67 0 37.38-16.746 37.38-37.382 0-20.629-16.711-37.373-37.38-37.373v0zM921.014 346.623z"  horiz-adv-x="1024" />

    
    <glyph glyph-name="riqi" unicode="&#58952;" d="M899.59082667-101.47498667000002h-775.21237334c-42.76906667 0-77.50087111 36.27008-77.50087111 80.95516445v718.08682667c0 44.68622222 34.73180445 80.91079111 77.50087111 80.9107911h126.00661334v60.68679112c0 16.74126222 13.00821333 30.31381333 29.08046222 30.31381333 16.01649778 0 29.02357333-13.57255111 29.02357333-30.31381333v-60.68792889h174.45546667v60.68792889c0 16.74126222 13.00821333 30.31381333 29.05429333 30.31381333 16.07224889 0 29.07932445-13.57255111 29.07932445-30.31381333v-60.68792889h174.37013333v60.68792889c0 16.74126222 13.06624 30.31381333 29.13848889 30.31381333 16.01763555 0 29.02357333-13.57255111 29.02357333-30.31381333v-60.68792889h125.97930667c42.82709333 0 77.53045333-36.22684445 77.53045333-80.91079111v-718.08682667c-0.00113778-44.68508445-34.70563555-80.95402667-77.53159111-80.95402667v0zM918.95921778 697.56700445c0 11.14225778-8.63345778 20.22513778-19.36839111 20.22513777h-125.97816889v-60.70158222c0-16.7424-13.00593778-30.31267555-29.02357333-30.31267555-16.07452445 0-29.13848889 13.57027555-29.1384889 30.31267555v60.70158222h-174.37013333v-60.70158222c0-16.7424-13.00821333-30.31267555-29.08273777-30.31267555-16.04380445 0-29.05201778 13.57027555-29.05201778 30.31267555v60.70158222h-174.45432889v-60.70158222c0-16.7424-13.00593778-30.31267555-29.02357333-30.31267555-16.07338667 0-29.08046222 13.57027555-29.08046223 30.31267555v60.70158222h-126.00775111c-10.67576889 0-19.39569778-9.08288-19.39569778-20.22513777v-718.08682667c0-11.20028445 8.71992889-20.26837333 19.39569778-20.26837333h775.21123556c10.73493333 0 19.36952889 9.06808889 19.36952888 20.26837333v718.08682667zM250.38506667 414.34225778v91.06090667h116.23765333v-91.06090667h-116.23765333zM250.38506667 262.62755555v91.01539556h116.23765333v-91.01539556h-116.23765333zM250.38506667 110.92650666999998v91.03018666h116.23765333v-91.03018666h-116.23765333zM453.83793778 110.92650666999998v91.03018666h116.29454222v-91.03018666h-116.29454222zM453.83793778 262.62755555v91.01539556h116.29454222v-91.01539556h-116.29454222zM453.83793778 414.34225778v91.06090667h116.29454222v-91.06090667h-116.29454222zM657.34428445 110.92650666999998v91.03018666h116.26837333v-91.03018666h-116.26837333zM657.34428445 262.62755555v91.01539556h116.26837333v-91.01539556h-116.26837333zM657.34428445 414.34225778v91.06090667h116.26837333v-91.06090667h-116.26837333z"  horiz-adv-x="1024" />

    
    <glyph glyph-name="gou" unicode="&#58964;" d="M976.21546667 665.49973333c-27.0944 28.48426667-71.51573333 29.0208-99.21493334 1.21066667l-478.08746666-479.904L151.99466667 440.64426667c-25.63626667 26.384-68.6304 24.9216-96.0448-3.2416-27.41546667-28.16746667-28.84266667-72.3744-3.17333334-98.75626667l301.82293334-310.27626667c25.63626667-26.3456 68.6304-24.8832 96.0448 3.27893334C476.26666667 53.33333332999996 975.04213333 563.5008 975.04213333 563.5008c27.73546667 27.84213333 28.2368 73.47733333 1.1776 101.99893333L976.21546667 665.49973333z"  horiz-adv-x="1024" />

    
    <glyph glyph-name="yy" unicode="&#58986;" d="M745.8885024 140.81769493000002l68.39724053 0 0 135.709504-68.39724053 0L745.8885024 140.81769493000002zM237.81124373 209.19965333000005l135.6887648 0 0 73.94546987L237.81124373 283.14512427 237.81124373 209.19965333000005zM441.89834027 209.19965333000005l135.72478506 0 0 73.94546987L441.89834027 283.14512427 441.89834027 209.19965333000005zM237.81124373 377.48140266999997l135.6887648 0 0 75.03372266L237.81124373 452.51512533 237.81124373 377.48140266999997zM441.89834027 377.48140266999997l135.72478506 0 0 75.03372266L441.89834027 452.51512533 441.89834027 377.48140266999997zM745.8885024 344.90479146999996l68.39724053 0L814.28574293 480.63066773l-68.39724053 0L745.8885024 344.90479146999996zM237.81124373 574.9669472l135.6887648 0 0 73.9280064L237.81124373 648.89495253 237.81124373 574.9669472zM441.89834027 574.9669472l135.72478506 0 0 73.9280064L441.89834027 648.89495253 441.89834027 574.9669472zM678.59588587 603.04756053l202.98247146 0 0-584.6805952L678.59588587 18.36696427000004 678.59588587 603.04756053zM183.75666347 772.41974507L632.78233173 772.41974507l0-754.05277974L183.75666347 18.36696427000004 183.75666347 772.41974507zM134.66088747 820.4250848l0-802.05921173-99.831024 0 0-48.006432 949.932688 0 0 48.006432-60.6899712 0L924.07258027 648.89604373 678.59588587 648.89604373 678.59588587 820.4250848 134.66088747 820.4250848z"  horiz-adv-x="1024" />

    
    <glyph glyph-name="gerenzhongxin" unicode="&#59125;" d="M471.11796267 846.57369707c-33.23152747 0-28.1166336-14.618816-46.00238934-17.1216864-17.88684693-2.5225184 3.62496 7.06436053-50.04103786-2.98750827-53.65944853-10.05841813-72.6159904-77.94700693-75.1701632-103.08923093-2.54762347-25.14768213-3.19162347-95.84040213-1.48447574-133.5493728 5.10834453-22.62516373-12.77741013-22.62516373-12.77741013-22.62516374-32.15528213 2.02587307-17.70128747-96.55426133-17.70128747-96.55426133 4.62479787-24.31375573-1.6558464-36.41005333 45.9521792-55.2257888 22.6830144-63.56396053 81.928896-97.1906208 81.928896-97.1906208s0.29252907-39.2251008 1.17884907-68.26516587c-4.84092053 2.37625387 16.555184-74.1954304-131.34557973-95.6941376-147.90731307-21.4539552-176.2215136-68.602448-204.1012864-94.8274656C33.67011627 33.178981330000056 34.74745387-94.04499520000002 34.74745387-94.04499520000002l954.5105504-0.49664427c0 0-7.09601493 127.721712-34.98342827 153.98384214-27.87431467 26.22501867-58.25805013 73.3735104-206.14680747 94.8274656-143.7857088 20.47267307-120.1410592 95.9801184-121.16054506 100.5034048 0.26087467 11.44683947 1.82175787 59.9531904 1.82175786 59.9531904s50.21349867 39.0024288 72.8834144 102.579488c35.68964587 22.17327147 49.27696853 25.26229227 55.182128 50.81165546 0 0 10.49721173 99.61162667-23.19275733 99.10188374 0 0-15.98213227-5.0581344-10.86723947 17.5812192 5.1017952 22.63171307 3.40774613 93.31133547 0.85357334 118.45355946-2.5672704 25.1411328 1.29891627 97.01270187-52.36598934 107.07657707-36.62617493 6.6943328-41.3972384 0.0633088-59.29718293 2.57927787-17.87374827 2.51596907-39.18034773 48.1046688-72.39331947 48.1046688L471.11796267 846.57369707z"  horiz-adv-x="1024" />

    
    <glyph glyph-name="rili" unicode="&#59063;" d="M698.25066667 592.29866667c22.7488 0 42.5088 18.45973333 42.5088 41.2448v187.4528c0 22.784-19.76 41.26826667-42.5088 41.26826666-22.7616 0-41.2032-18.4832-41.2032-41.26826666v-187.4528c-0.00106667-22.784 18.4416-41.2448 41.2032-41.2448v0zM615.9808 758.36266667h-208.63146667v-62.30826667h208.63146667v62.30826667zM860.07573333 758.36266667h-77.5424v-61.9616h80.50773334c23.68213333 0 43.66613333-20.0256 43.66613333-43.72586667v-144.19413333h-790.06186667v144.1952c0 23.70026667 19.984 43.72586667 43.66613334 43.72586666h81.02826666v61.96053334h-77.41226666c-60.0352 0-109.1424-49.18613333-109.1424-109.32053334v-634.0032c0-60.11733333 47.30026667-109.3024 107.3344-109.3024h697.9552c60.01066667 0 109.13813333 49.18506667 109.13813333 109.3024v634.0032c0 60.13333333-49.1264 109.32053333-109.13706667 109.32053334v0zM906.704 11.825066669999956c0-23.70133333-19.984-43.7216-43.66186667-43.7216h-702.7296c-23.68213333 0-43.66613333 20.02026667-43.66613333 43.7216v434.5728h790.05653333v-434.5728h0.00106667zM282.14186667 259.29280000000006c34.54933333 0 62.53226667 28.04373333 62.53226666 62.6528 0 34.58346667-27.984 62.6336-62.53226666 62.6336-34.52053333 0-62.528-28.04906667-62.528-62.6336 0-34.60906667 28.00213333-62.6528 62.528-62.6528v0zM511.12746667 259.29280000000006c34.52586667 0 62.528 28.04373333 62.528 62.6528 0 34.58346667-28.00213333 62.6336-62.528 62.6336-34.54826667 0-62.53226667-28.04906667-62.53226667-62.6336-0.00106667-34.60906667 27.98506667-62.6528 62.53226667-62.6528v0zM281.02506667 30.225066670000047c34.54826667 0 62.53226667 28.048 62.53226666 62.6336 0 34.608-27.98506667 62.656-62.53226666 62.656-34.52586667 0-62.528-28.048-62.528-62.656 0-34.5856 28.00213333-62.6336 62.528-62.6336v0zM511.12746667 30.225066670000047c34.52586667 0 62.528 28.048 62.528 62.6336 0 34.608-28.00213333 62.656-62.528 62.656-34.54826667 0-62.53226667-28.048-62.53226667-62.656-0.00106667-34.5856 27.98506667-62.6336 62.53226667-62.6336v0zM739.78453333 259.29280000000006c34.52586667 0 62.53226667 28.04373333 62.53226667 62.6528 0 34.58346667-28.00746667 62.6336-62.53226667 62.6336-34.54506667 0-62.52906667-28.04906667-62.52906666-62.6336 0-34.60906667 27.98506667-62.6528 62.52906666-62.6528v0zM323.91786667 592.29866667c22.7488 0 42.50773333 18.45973333 42.50773333 41.2448v187.4528c0 22.784-19.75893333 41.26826667-42.50773333 41.26826666-22.76266667 0-41.20853333-18.4832-41.20853334-41.26826666v-187.4528c0-22.784 18.44586667-41.2448 41.20853334-41.2448v0zM323.91786667 592.29866667z"  horiz-adv-x="1024" />

    
    <glyph glyph-name="xiangyou" unicode="&#58902;" d="M289.57809778-32.607194049999976q-7.39100445 6.84487111-7.39100445 17.07576888t7.97354667 18.20444445l391.39555555 391.39555555-389.13820444 389.13820445q-1.12867555 1.12867555-2.29376 3.42243555-7.97354667 6.84487111-7.97354666 17.07576889t7.39100444 17.07576889 17.62190222 6.84487111 17.07576889-6.84487111l2.29376-2.29376 1.12867555 0 406.17756445-407.34264889q6.84487111-6.84487111 6.84487111-17.07576889t-6.84487111-17.07576888l-406.17756445-407.3426489-1.12867555 1.12867556q-1.12867555-2.29376-2.29376-3.42243556-6.84487111-6.84487111-17.07576889-6.8448711t-17.62190222 6.8448711z"  horiz-adv-x="1024" />

    
    <glyph glyph-name="fabiaotingzhen" unicode="&#58901;" d="M919.3568 236.51520000000005l68.544 0 0-327.4848-68.544 0 0 327.4848ZM943.9328 408.0384C943.9328 659.856 739.7888 864 487.9616 864S32 659.856 32 408.0384s204.144-455.9616 455.9616-455.9616c93.2832 0 179.9904 28.0704 252.2304 76.1376L740.192 236.51520000000005l68.544 0 0-152.4576C892.1984 166.6848 943.9328 281.3088 943.9328 408.0384zM180.5888 379.4112L92.3744 379.4112l0 28.6272 88.2048 0L180.5792 379.4112zM502.2752 23.932800000000043l-28.6272 0 0 88.2048 28.6272 0L502.2752 23.932800000000043zM502.2752 379.4112l-24.4896 0-4.1376 0L473.648 794.7936l28.6272 0 0-386.7552 373.8048 0 0-28.6272L502.2752 379.4112zM740.2016-90.97919999999999l68.544 0L808.7456 84.048c-20.9472-20.7456-43.9008-39.4464-68.544-55.8432L740.2016-90.97919999999999z"  horiz-adv-x="1024" />

    
    <glyph glyph-name="menzhenxuanzhong" unicode="&#59177;" d="M453.34572587 603.16103679L453.34572587 747.03625173 176.29116693 747.03625173l0-143.87521387L32.41595307 603.16103679l58.1008704-95.91680959 0-383.026512c0-52.14986667 37.95892907-94.4301504 84.78214613-94.4301504l673.40206187 0c46.82321707 0 84.78214613 42.27919147 84.78214613 94.4301504l0 48.82180266L933.4831776 361.89981866000005 933.4831776 507.2442272l58.1008704 95.91680959L453.34572587 603.16103679zM631.8954656 280.51668586999995l-83.9274816 0 0-83.9274816c0-19.858144-16.11093227-35.96907627-35.96907627-35.96907627-19.858144 0-35.96907627 16.11093227-35.96907626 35.96907627l0 83.9274816-83.9274816 0c-19.858144 0-35.96907627 16.11093227-35.96907627 35.96907626 0 19.858144 16.11093227 35.96907627 35.96907627 35.96907626l83.9274816 0 0 83.9274816c0 19.858144 16.11093227 35.96907627 35.96907626 35.96907628 19.858144 0 35.96907627-16.11093227 35.96907627-35.96907628l0-83.9274816 83.9274816 0c19.858144 0 35.96907627-16.11093227 35.96907627-35.96907626C667.86454293 296.6276192 651.7536096 280.51668586999995 631.8954656 280.51668586999995z"  horiz-adv-x="1024" />

    
    <glyph glyph-name="select" unicode="&#58884;" d="M164.114 411.342l203.958-162.486L875.942 716.73c0 0 34.092 31.104 63.828 6.822 8.856-7.326 19.08-28.026-3.96-60.444L405.584 41.946000000000026c0 0-40.68-55.62-88.938 0.612L87.848 351.54600000000005c0 0-27.162 41.814 6.804 66.906C106.118 426.858 132.182 439.962 164.114 411.342L164.114 411.342zM164.114 411.342"  horiz-adv-x="1024" />

    
    <glyph glyph-name="jiahao" unicode="&#58883;" d="M970.2452825 526.57004625c-16.43090531 61.78483875-57.90122063 122.53809188-59.72166656 125.18877188-8.63056969 12.55556156-25.80344531 15.72479344-38.35624875 7.09146562-11.69498719-8.04582-15.23382469-23.500305-8.68297688-35.72487656l-0.10757156-0.04689c0.50200219-0.73921125 0.98469563-1.49221406 1.48118156-2.23418344 0.07447313-0.11584688 0.14067094-0.23720999 0.22066032-0.35305594 0.01654969-0.03309938 0.16825313-0.2482425 0.40822125-0.61233187 1.11433406-1.6687425 2.21487655-3.35403375 3.3016275-5.04208406 3.11406656-4.84900687 7.91342438-12.55831969 13.39682906-22.20116813 0.71714531-1.27431187 1.44808219-2.53759125 2.14867781-3.82017844 11.58741562-20.79997594 25.45038844-49.16859563 32.71010718-76.83661874 1.06192687-3.38713313 2.09075438-6.78805781 3.07545095-10.21104751 2.14316156-7.47762 4.12634438-15.02971406 5.87783437-22.67282906 25.40625657-110.57831156 6.22261594-224.43066844-54.00656906-320.58884062-60.229185-96.152655-154.29936-163.09818281-264.88318875-188.49892313-110.57831156-25.40349844-224.4334275-6.22261594-320.58884063 54.0093272-96.14989687 60.229185-163.09818281 154.29660187-188.49892312 264.88043061-25.40074031 110.58107062-6.21709969 224.4334275 54.01208531 320.58884063 60.229185 96.15541406 154.29936 163.10094187 264.8776725 188.49892312 64.80236625 14.886285 130.72734094 14.43669001 193.55755687-0.58474968 41.50893001-9.92970656 81.66355875-26.21718281 119.250255-48.680385 2.60103094-1.55841188 5.19930469-3.12785719 7.77826969-4.74419344l0.07447313 0.118605c12.74588156-7.13835562 28.9781925-3.11406656 36.81714376 9.4001222 8.08719375 12.91137657 4.18150969 29.93254781-8.73262501 38.01698342-0.55992469 0.35029781-3.65744156 2.27555812-8.72159157 5.21033719C533.57541781 929.41822875 243.94519438 860.13922031 105.28512125 638.7757265600001c-140.70945375-224.62926281-72.67993312-520.7965425 151.95208781-661.50323812 224.63477906-140.70945375 520.79930156-72.677175 661.50875531 151.95484593C996.04596875 252.63703406000002 1010.3116475 397.62453655 970.2452825 526.57004625zM529.42700656 140.63546342999996c15.23382469 0 27.5825175 11.13230438 27.5825175 24.8656397l0 193.71201937 193.71201937 0c13.73333531 0 24.86288156 12.34869281 24.86288157 27.57975938s-11.12954531 27.58527563-24.86288155 27.58527562l-193.71201939 0 0 193.71201937c0 13.73333531-12.34869281 24.86563969-27.5825175 24.86563968-15.23106562 0-27.5825175-11.13230438-27.5825175-24.86563968l0-193.71201937-193.71201937 0c-13.73333531 0-24.86563969-12.35420906-24.86563968-27.58527562s11.13230438-27.57975938 24.86563968-27.57975938l193.71201937 0 0-193.71201937C501.84173094 151.76776781 514.19594094 140.63546342999996 529.42700656 140.63546342999996z"  horiz-adv-x="1024" />

    
    <glyph glyph-name="shuzimima" unicode="&#58890;" d="M-730.604 1700.066v0 0 0 0 0 0 0zM-730.604 1700.066v0 0 0 0 0 0 0zM-717.289 1689.71v0 0 0 0 0 0 0zM-743.919 1689.71v0 0 0 0 0 0 0zM-743.919 1700.066v0 0 0 0 0 0 0zM-616.683 1689.71v0 0 0 0 0 0 0zM-730.604 1700.066v0 0 0 0 0 0 0zM-743.919 1700.066v0 0 0 0 0 0 0zM-656.629 1689.71v0 0 0 0 0 0 0zM888.835-55.97500000000002h-771.389c-39.424 0-71.5 32.076-71.5 71.5v761.037c0 39.424 32.076 71.499 71.5 71.499h771.389c39.424 0 71.499-32.075 71.499-71.499v-761.037c0-39.424-32.076-71.5-71.5-71.5zM117.444 808.60599999c-17.67 0-32.044-14.375-32.044-32.04399999v-761.037c0-17.67 14.375-32.044 32.044-32.044h771.389c17.669 0 32.044 14.375 32.044 32.044v761.037c0 17.669-14.375 32.044-32.044 32.04399999h-771.389zM249.679 472.52199999h186.378v-39.45499999h-186.378v39.45499999zM396.25 452.796h-39.455v224.462h-76.915v39.45499999h116.37zM775.573 433.07499999h-180.1v283.19500001h180.1v-283.19500001zM634.927 472.532h101.187v204.28399999h-101.187v-204.28399999zM423.118 89.65999999999997h-168.129v155.94199999h126.391v68.40200001h-126.516v39.455h165.972v-147.31300001h-126.391v-77.031h128.676zM736.866 361.727h39.455v-266.625h-39.455v266.625zM744.954 215.16200000000003h-149.489v143.118h39.455v-103.661h110.033z"  horiz-adv-x="1024" />

    
    <glyph glyph-name="touxiang" unicode="&#59469;" d="M801.390592 261.505024c12.304384 19.668992 21.929984 40.849408 28.91776 63.463424 1.388544-0.073728 2.772992-0.159744 4.165632-0.159744 50.323456 0 91.262976 46.841856 91.262976 104.411136s-40.93952 104.40704-91.262976 104.40704c-1.47456 0-2.953216-0.045056-4.427776-0.12288-0.77824 3.313664-1.589248 6.643712-2.43712 9.986048 61.161472 34.9184 83.021824 83.644416 84.09088 86.110208 2.342912 5.398528 1.613824 11.644928-1.916928 16.355328-3.534848 4.714496-9.334784 7.163904-15.163392 6.43072-50.19648-6.344704-84.992 29.093888-129.024 73.949184-46.022656 46.891008-103.309312 105.24672-195.928064 124.74368-95.801344 20.160512-162.463744-10.89536-201.510912-40.50944-32.751616-24.834048-51.818496-52.55168-59.121664-64.499712C258.650112 728.219648 223.0272 698.023936 203.10016 656.252928c-20.123648-42.1888-20.21376-88.006656-15.470592-122.826752-47.808512-3.223552-85.843968-48.72192-85.843968-104.206336 0-57.56928 40.93952-104.411136 91.262976-104.411136 8.269824 0 16.355328 1.236992 24.174592 3.6864 28.495872-64.892928 88.30976-157.462528 204.660736-189.93152l0-15.060992c-38.834176-6.254592-145.321984-31.080448-242.900992-123.060224-6.582272-6.209536-6.889472-16.576512-0.684032-23.16288 3.223552-3.416064 7.569408-5.144576 11.927552-5.144576 4.030464 0 8.06912 1.478656 11.235328 4.460544 42.901504 40.439808 88.076288 66.92864 127.434752 84.262912 19.484672-87.650304 97.931264-151.707648 189.394944-151.707648 94.212096 0 173.314048 66.53952 190.541824 157.335552 40.660992-16.5888 89.358336-43.327488 136.077312-86.310912 3.149824-2.895872 7.122944-4.329472 11.087872-4.329472 4.419584 0 8.830976 1.78176 12.058624 5.287936 6.127616 6.660096 5.697536 17.022976-0.96256 23.150592-96.227328 88.551424-198.483968 112.902144-236.306432 119.164928l0 13.971456C663.601152 146.542592 748.76928 177.369088 801.390592 261.505024zM892.96896 429.21984c0-37.875712-24.141824-68.898816-54.554624-71.397376 8.073216 43.106304 7.561216 90.824704-1.593344 142.893056C867.98336 499.187712 892.96896 467.750912 892.96896 429.21984zM613.015552 92.807168c0.55296-0.049152 26.29632-2.523136 64.544768-14.88896-12.1856-78.127104-79.1552-135.999488-159.268864-135.999488-77.811712 0-144.252928 55.78752-158.437376 131.264512 46.44864 16.519168 79.110144 19.562496 79.736832 19.615744 8.507392 0.688128 15.065088 7.794688 15.065088 16.330752L454.656 150.528c0 6.795264-4.13696 12.619776-10.031104 15.106048-1.458176 0.913408-3.039232 1.671168-4.804608 2.097152-170.397696 41.181184-212.992 233.209856-213.4016 235.147264-1.867776 8.843264-10.539008 14.491648-19.39456 12.652544-8.855552-1.859584-14.528512-10.543104-12.673024-19.398656 0.45056-2.1504 3.54304-16.265216 10.79296-36.982784-3.948544-1.024-7.9872-1.568768-12.095488-1.568768-32.256 0-58.494976 32.137216-58.494976 71.643136 0 39.501824 26.238976 71.63904 58.494976 71.63904 0.28672 0 0.57344-0.04096 0.86016-0.049152 3.506176-13.996032 6.81984-22.908928 7.262208-24.072192 2.490368-6.537216 8.708096-10.555392 15.314944-10.555392 1.937408 0 3.91168 0.344064 5.828608 1.077248 8.454144 3.219456 12.701696 12.685312 9.478144 21.143552-0.118784 0.311296-4.44416 11.93984-8.249344 29.892608-0.032768 0.217088-0.090112 0.425984-0.135168 0.638976-6.475776 30.928896-11.255808 80.203776 9.265152 123.211776 16.699392 35.008512 47.84128 60.182528 92.561408 74.83392 4.071424 1.335296 7.45472 4.206592 9.433088 8.003584 0.667648 1.282048 68.493312 127.660032 228.2496 94.035968 82.927616-17.457152 134.12352-69.615616 179.294208-115.634176 38.617088-39.34208 75.444224-76.865536 124.977152-83.488768-15.368192-19.849216-44.294144-47.988736-92.868608-64.622592-100.200448-34.316288-241.352704-4.145152-408.20736 87.228416-4.83328 2.646016-10.665984 2.686976-15.540224 0.106496-4.866048-2.576384-8.114176-7.430144-8.638464-12.914688-0.06144-0.630784-6.71744-63.377408-65.875968-95.797248-7.933952-4.349952-10.842112-14.307328-6.49216-22.24128 4.354048-7.933952 14.307328-10.838016 22.24128-6.49216 49.913856 27.353088 69.976064 71.356416 77.856768 98.234368 168.972288-89.02656 308.609024-115.65056 415.27296-79.126528 4.3008 1.47456 8.429568 3.05152 12.47232 4.673536 15.589376-64.569344 17.969152-122.052608 7.274496-171.966464-2.428928-1.953792-4.333568-4.612096-5.34528-7.798784-1.220608-3.842048-0.88064-7.770112 0.561152-11.218944-6.189056-21.057536-14.831616-40.681472-26.075136-58.728448-57.020416-91.52512-161.456128-112.644096-162.476032-112.8448-7.737344-1.462272-13.33248-8.224768-13.33248-16.09728l0-41.152512C598.016 100.630528 604.545024 93.540352 613.015552 92.807168z"  horiz-adv-x="1024" />

    
    <glyph glyph-name="arrow-down" unicode="&#58882;" d="M903.19166578 617.71472592l-389.18432237-393.33372207-394.95027674 390.78995437c-17.34276741 17.34398103-45.5268883 17.28208592-62.94247349-0.13349925v-0.00121364c-17.41801245-17.41679882-17.47869392-45.59727882 4.31566697-62.93397808l416.8708551-416.8708551c6.29388325-5.6239597 13.72857837-12.08653748 17.74205157-13.15817245 16.36700918-6.58515437 36.47563852-3.2889363 53.0064877 9.88379971l422.6950637 422.6950637c13.03195497 17.49083022 13.09991822 45.80116859-4.32173511 63.2216083-17.41679882 17.41558518-45.72835082 17.3464083-63.23131733-0.15413096z"  horiz-adv-x="1024" />

    
    <glyph glyph-name="shangcheng" unicode="&#58900;" d="M974.69629653 573.6296298699999A22.7555552 22.7555552 0 0 1 951.94074027 550.8740736v-107.67928853C951.94074027 394.66477013 892.88248853 353.65925973000003 822.99259307 353.65925973000003S694.0444448 394.66477013 694.0444448 443.19478507V550.8740736a22.7555552 22.7555552 0 1 1-45.51111147 0v-107.67928853C648.53333333 394.66477013 589.4750816 353.65925973000003 519.58518507 353.65925973000003S390.6370368 394.66477013 390.6370368 443.19478507V550.8740736a22.7555552 22.7555552 0 0 1-22.7555552 22.75555627c-2.66998507 0-5.2034368-0.54613333-7.58518507-1.39567467a22.49765973 22.49765973 0 0 1-7.58518506 1.39567467A22.7555552 22.7555552 0 0 1 329.9555552 550.8740736v-107.67928853C329.9555552 394.66477013 270.89730347 353.65925973000003 201.00740693 353.65925973000003S72.05925973 394.66477013 72.05925973 443.19478507V550.8740736a22.7555552 22.7555552 0 1 1-45.51111146 0v-107.67928853c0-42.70459307 25.8048-80.76705173 65.90008853-105.54026667C89.2321184 333.7405632 87.22962987 353.65925973000003 87.22962987 353.65925973000003v-402.01481493A22.7555552 22.7555552 0 0 1 109.98518507-71.11111146999997h788.85925973a22.7555552 22.7555552 0 0 1 22.7555552 22.75555627V323.3185184c0 2.7458368-0.56130347 5.33997013-1.4563552 7.7824 46.5730368 24.27259307 77.30820693 65.44497813 77.30820693 112.1090368V550.8740736a22.7555552 22.7555552 0 0 1-22.7555552 22.75555627zM876.08888853-25.600000000000023H132.74074027V318.93428159999996c20.98062187-6.93285973 44.0547552-10.78613333 68.26666666-10.78613333 70.9821632 0 132.0732448 33.02589653 159.2888896 80.2209184C387.51194027 341.17404480000005 448.60302187 308.14814827 519.58518507 308.14814827c64.98986667 0 121.68154027 27.70109653 151.70370346 68.60041493C701.31105173 335.84924479999995 758.0027264 308.14814827 822.99259307 308.14814827c18.52302187 0 36.34820693 2.2755552 53.09629546 6.44740693V-25.600000000000023zM390.6370368 186.78518507h212.38518507v-242.72592534H390.6370368zM610.60740693-71.11111146999997h-212.38518506a22.7555552 22.7555552 0 0 0-22.7555552 22.75555627v242.72592533a22.7555552 22.7555552 0 0 0 22.7555552 22.75555627h212.38518506a22.7555552 22.7555552 0 0 0 22.75555627-22.75555627v-242.72592533a22.7555552 22.7555552 0 0 0-22.75555627-22.75555627zM420.97777813-25.600000000000023h166.8740736V171.61481492999997H420.97777813v-197.21481493zM974.69629653 535.7037034699999h-925.39259306l121.3629632 273.06666666h682.66666666zM974.99970347 520.53333333H49.30370347a22.7555552 22.7555552 0 0 0-20.79857707 32.0094816l121.36296213 273.06666667A22.7555552 22.7555552 0 0 0 170.66666667 839.11111147h682.66666666a22.7555552 22.7555552 0 0 0 20.79857814-13.5168l119.9521184-269.9264A22.72521493 22.72521493 0 0 0 974.99970347 520.53333333zM84.3169184 566.0444448000001h855.35099307L838.54222187 793.6h-653.08444374L84.3169184 566.0444448000001z"  horiz-adv-x="1024" />

    
    <glyph glyph-name="paibanbiao" unicode="&#59005;" d="M758.87112 173.086496c-87.039424 0-158.009392-70.42966293-158.00939307-156.9178656v-15.10345387h316.01769387v15.10345387c0 86.48820267-70.91211733 156.9178656-158.0083008 156.9178656zM835.27470827 299.86622079999995c0 41.86004587-34.2433728 75.8643744-76.52365654 75.86437333-42.03578133 0-76.46689707-34.00432853-76.46689706-75.86437333 0-41.79782827 34.36780693-75.92659093 76.46689706-75.926592 42.21806613 0 76.52365653 34.06654507 76.52365654 75.926592zM942.91997013 784.725616H713.23439147v-61.48787733c0-16.12184853-13.07212267-29.18851307-29.18851307-29.18851307-16.12184853 0-29.19287893 13.0666656-29.19287893 29.18851307v61.48787733H369.00946773v-61.48787733c0-16.12184853-13.0666656-29.18851307-29.18851306-29.18851307s-29.18851307 13.0666656-29.18851307 29.18851307v61.48787733H80.94358827c-23.50384213 0-42.56080533-19.0569632-42.56080534-42.5608064v-124.60758613h947.0979936V742.1648096c0 23.50384213-19.05150507 42.56080533-42.5608064 42.5608064zM38.38169173 25.837372800000026c0-23.50930027 19.0569632-42.56080533 42.56080534-42.56080533h468.70152746v32.9499136c0 82.44627947 48.3175168 155.95186453 123.88062934 189.59708053-26.9388768 24.1587584-42.28028373 57.92404267-42.28028374 94.10487573 0 69.9406592 57.19708587 126.83648427 127.56344107 126.83648427 70.30959467 0 127.63111467-56.89582507 127.63111467-126.83648427 0-36.18083307-15.40471467-70.00287573-42.34250027-94.10487573 75.56311253-33.645216 123.88062933-107.0940416 123.8806304-189.59708053v-24.64230507c10.5670688 7.74656427 17.50372053 20.1473984 17.50372053 34.2531968V551.12800533H38.38169173v-525.29063253z m108.3569376 357.61249813h320.26264c15.0041248 0 27.16154773-12.15742293 27.1615488-27.1615488s-12.15742293-27.16700587-27.1615488-27.16700586H146.73862933c-14.99975893 0-27.16700587 12.16288107-27.16700586 27.16700586 0 15.005216 12.16724693 27.16154773 27.16700586 27.1615488z m0-91.92728h259.216832c15.0041248 0 27.16154773-12.16288107 27.16154774-27.16154773 0-15.0041248-12.15742293-27.16700587-27.16154774-27.16700587H146.73862933c-14.99975893 0-27.16700587 12.16288107-27.16700586 27.16700587 0 14.99866667 12.16724693 27.16154773 27.16700586 27.16154773z m0-91.9283712h200.1652416c15.0041248 0 27.16154773-12.16288107 27.1615488-27.16700586 0-14.99975893-12.15742293-27.16154773-27.1615488-27.16154774H146.73862933c-14.99975893 0-27.16700587 12.16288107-27.16700586 27.16154774 0 15.0041248 12.16724693 27.16700587 27.16700586 27.16700586z"  horiz-adv-x="1024" />

    
    <glyph glyph-name="shezhi" unicode="&#58904;" d="M671.612928-48.78882133000002c-17.36157867 0.00546133-34.24802133 7.176192-45.13792 19.20750933-14.84936533 16.28023467-61.898752 58.61649067-100.417536 58.61649067-38.24571733 0-86.02146133-42.582016-99.745792-57.491456-10.87351467-11.829248-27.62888533-18.87982933-44.82116267-18.87982934-8.192 0-15.91978667 1.56740267-22.97582933 4.66397867l-1.23426133 0.540672-117.06368 65.45954133-1.163264 0.81373867c-21.30466133 14.91490133-29.41474133 44.10026667-18.857984 67.878912 0.08192 0.17476267 10.80251733 24.90914133 10.80251733 47.45352533 0 68.41412267-55.66737067 124.092416-124.092416 124.092416h-4.145152l-0.753664-0.016384c-19.60072533 0-35.55874133 17.41073067-40.665088 44.36241067-0.40413867 2.15722667-9.98331733 53.264384-9.98331733 93.53079467 0 40.271872 9.57371733 91.38449067 9.98331733 93.54171733 5.16096 27.29028267 21.46850133 44.81570133 41.41329067 44.34602667h4.15061333c68.419584 0 124.092416 55.66737067 124.092416 124.08695466 0 22.53892267-10.70967467 47.26784-10.82436267 47.5136-10.551296 23.75133867-2.38660267 52.92578133 19.021824 67.796992l1.212416 0.84104534 123.53536 67.86798933 1.28887467 0.54613333c6.95773867 2.965504 14.57629867 4.46737067 22.64814933 4.46737067 17.15950933 0 33.94218667-6.90312533 44.91946667-18.47022933 14.62545067-15.30811733 60.83925333-55.12669867 98.254848-55.12669867 37.05514667 0 82.99042133 39.03214933 97.56672 54.07266133 10.911744 11.32680533 27.58519467 18.11524267 44.56448 18.11524267 8.23569067 0 15.99624533-1.56194133 23.07413333-4.63121067l1.25064534-0.54613333 119.31921066-66.289664 1.18510934-0.82466133c21.348352-14.89851733 29.474816-44.07842133 18.91259733-67.86798934-0.07645867-0.180224-10.80251733-24.91460267-10.80251733-47.45898666 0-68.419584 55.66737067-124.08695467 124.092416-124.08695467h4.15061333c19.922944 0.442368 36.24686933-17.055744 41.41329067-44.34602667 0.4096-2.162688 9.98331733-53.264384 9.98331733-93.536256s-9.57371733-91.38449067-9.98877867-93.536256c-5.16096-27.29028267-21.49034667-44.75016533-41.41329066-44.34056533h-4.145152c-68.419584 0-124.092416-55.672832-124.092416-124.09787733 0-22.53892267 10.715136-47.25691733 10.81890133-47.50267734 10.54037333-23.740416 2.392064-52.92032-18.97813333-67.80245333l-1.19057067-0.84104533-121.339904-67.059712-1.261568-0.54613334c-6.95227733-3.00373333-14.53806933-4.51652267-22.560768-4.51652266z m-3.6864 57.163776c0.54613333-0.34952533 2.080768-0.95573333 3.6864-0.95573334l0.18568533 0.00546134 113.360896 62.65787733c-2.736128 6.35153067-15.24804267 37.208064-15.24804266 69.38624 0 96.24507733 75.80330667 175.12311467 170.84689066 180.05469867 1.36533333 7.553024 8.78728533 50.04765867 8.78728534 81.92s-7.421952 74.34513067-8.78728534 81.92c-95.03812267 4.93704533-170.84689067 83.80962133-170.84689066 180.05469866 0 32.227328 12.55560533 63.12209067 15.26442666 69.42993067l-111.525888 61.95882667c-0.12561067 0.00546133-0.28945067 0.016384-0.46967466 0.016384-1.900544 0-3.67547733-0.69358933-4.25984-1.09226667-1.87869867-1.92785067-18.038784-18.317312-41.26037334-34.65216-34.37909333-24.17732267-66.879488-36.44347733-96.616448-36.44347733-30.015488 0-62.783488 12.50645333-97.37557333 37.16437333-23.363584 16.65160533-39.60558933 33.357824-41.484288 35.31844267-0.59528533 0.40413867-2.392064 1.114112-4.308992 1.114112a8.51968 8.51968 0 0 1-0.39867733-0.01092267L271.958016 732.77713067c2.768896-6.43345067 15.23712-37.23537067 15.23712-69.35893334 0-96.239616-75.80330667-175.11765333-170.84689067-180.05469866-1.36533333-7.55848533-8.78728533-50.04219733-8.78728533-81.92 0-31.87234133 7.421952-74.34513067 8.798208-81.91453867 95.03266133-4.93704533 170.835968-83.820544 170.835968-180.06016 0-32.292864-12.599296-63.23677867-15.28081067-69.46816l109.33589334-61.13416533c0.065536-0.01092267 0.15291733-0.01092267 0.24576-0.01092267 1.59470933 0 3.10749867 0.58436267 3.64817066 0.933888 2.048 2.195456 18.37192533 19.480576 41.893888 36.72746667 35.05629867 25.69557333 68.37589333 38.72085333 99.01943467 38.72085333 30.94391467 0 64.51473067-13.27650133 99.77856-39.46359467 23.658496-17.55818667 40.05341867-35.17098667 42.090496-37.39921066z m-141.46491733 228.442112c-91.12234667 0-165.25448533 74.1376-165.25448534 165.25448533 0 91.12234667 74.13213867 165.25448533 165.25448534 165.25448533 91.12234667 0 165.25994667-74.13213867 165.25994666-165.25448533 0-91.11688533-74.14306133-165.25448533-165.25994666-165.25448533z m0 274.300928c-60.12928 0-109.04098133-48.91716267-109.04098134-109.04098134 0-60.13474133 48.91716267-109.051904 109.04098134-109.051904s109.04644267 48.91716267 109.04644266 109.051904c0 60.12381867-48.91716267 109.04098133-109.04644266 109.04098134z"  horiz-adv-x="1024" />

    
    <glyph glyph-name="dynamic_fill" unicode="&#59124;" d="M859.57420525 417.05180594l-192.52235091-192.52235091a44.05434561 44.05434561 0 0 0-62.48028556 0l-141.30972648 141.30972646-185.31988518-183.46403511a44.09853252 44.09853252 0 0 0-62.48028555 0.35349525 44.18690634 44.18690634 0 0 0 0.30930834 62.48028557l216.56002796 214.39486955a44.18690634 44.18690634 0 0 0 62.34772483-0.17674763l141.13297885-141.17716576 161.28220814 161.28220815a44.14271943 44.14271943 0 1 0 62.48028556-62.48028557M910.03565229 870.05596972H113.96434771A88.10869124 88.10869124 0 0 1 25.94403028 782.03565229v-796.07130458C25.94403028-62.59706234999999 65.40293765-102.05596972000001 113.96434771-102.05596972000001h796.07130458A88.10869124 88.10869124 0 0 1 998.05596972-14.03565229000003V782.03565229A88.15287813 88.15287813 0 0 1 910.03565229 870.05596972"  horiz-adv-x="1024" />

    
    <glyph glyph-name="homepage_fill" unicode="&#59138;" d="M677.70089876 23.43484429H234.3267189v0.12427568l111.97238234-0.04142523v153.89470972c0 1.03563061 0.28997657 1.98841078 0.28997657 2.98261618 1.65700898 90.0998637 75.06250715 162.96683394 165.41092219 162.96683394s163.75391321-72.90839547 165.41092219-162.96683394c0-0.99420539 0.28997657-1.94698557 0.28997657-2.98261618v-153.97756017z m311.84909148 553.648128L884.82702222 645.68314437V778.6166904a41.42522469 41.42522469 0 1 1-82.85044939 0v-78.7079269l-267.2755497 175.18727522A40.51386975 40.51386975 0 0 1 511.25434595 881.1026963a40.34816885 40.34816885 0 0 1-22.78387358-6.00665758L33.62150526 577.0415470600001a41.42522469 41.42522469 0 0 1 45.40204626-69.30440091L97.74775309 520.04043789V11.172977779999997c0-38.9397112 35.17001577-70.67143333 78.41795034-70.67143333h671.66859314C891.08223115-59.45703031000005 926.25224691-27.766733430000045 926.25224691 11.172977779999997V519.46048475l17.9371223-11.7233386a41.38379947 41.38379947 0 0 1 45.36062103 69.30440091z"  horiz-adv-x="1024" />

    
    <glyph glyph-name="qrcode_fill" unicode="&#59164;" d="M379.57184171 870.05596972H114.18528224A88.37381268 88.37381268 0 0 1 25.94403028 781.81471776v-265.38655947A88.37381268 88.37381268 0 0 1 114.18528224 428.18690634h265.38655947A88.37381268 88.37381268 0 0 1 467.81309366 516.42815829V781.81471776A88.37381268 88.37381268 0 0 1 379.57184171 870.05596972M379.57184171 339.81309366000005H114.18528224A88.37381268 88.37381268 0 0 1 25.94403028 251.57184170999994v-265.38655947A88.37381268 88.37381268 0 0 1 114.18528224-102.05596972000001h265.38655947A88.37381268 88.37381268 0 0 1 467.81309366-13.814717760000008v265.38655947A88.37381268 88.37381268 0 0 1 379.57184171 339.81309366000005M909.81471776 870.05596972h-265.38655947A88.37381268 88.37381268 0 0 1 556.18690634 781.81471776v-265.38655947A88.37381268 88.37381268 0 0 1 644.42815829 428.18690634h265.38655947A88.37381268 88.37381268 0 0 1 998.05596972 516.42815829V781.81471776A88.37381268 88.37381268 0 0 1 909.81471776 870.05596972M777.12143803 251.43928098000004a44.18690634 44.18690634 0 0 1-44.18690633-44.18690632v-265.12143803a44.18690634 44.18690634 0 1 1 88.37381265 0v265.12143803a44.18690634 44.18690634 0 0 1-44.18690632 44.18690632M600.37381268 251.43928098000004a44.18690634 44.18690634 0 0 1-44.18690634-44.18690632v-265.12143803a44.18690634 44.18690634 0 1 1 88.37381268 0v265.12143803a44.18690634 44.18690634 0 0 1-44.18690634 44.18690632M953.86906337 339.81309366000005a44.18690634 44.18690634 0 0 1-44.18690634-44.18690634v-353.49525069a44.18690634 44.18690634 0 1 1 88.37381269 0v353.49525069a44.18690634 44.18690634 0 0 1-44.18690635 44.18690634"  horiz-adv-x="1024" />

    
    <glyph glyph-name="setup_fill" unicode="&#59176;" d="M706.18074075 396.81592889c0-107.0324243-87.1094803-194.18074075-194.18074075-194.18074074s-194.18074075 87.14831645-194.18074075 194.18074074c0 107.11009659 87.1094803 194.18074075 194.18074075 194.18074074s194.18074075-87.07064415 194.18074075-194.18074074m254.22142577 127.38256593a38.56429511 38.56429511 0 0 1-39.845888 28.1562074 76.08001422 76.08001422 0 0 0-20.19479704 1.39810133 77.43927941 77.43927941 0 0 0-52.04043851 37.28270223 77.36160711 77.36160711 0 0 0 2.56318578 81.90543644 38.83614815 38.83614815 0 0 1-4.46615705 48.50634903c-23.76772267 24.46677333-50.52582875 45.20527645-78.68203615 63.76895527-43.45764978 28.66107733-90.99309511 50.87535408-141.82961303 63.65244681a38.797312 38.797312 0 0 1-44.27320889-20.42781392 77.28393482 77.28393482 0 0 0-69.51670518-43.22463289h-0.2330169a77.28393482 77.28393482 0 0 0-69.51670518 43.22463289 38.83614815 38.83614815 0 0 1-44.27320889 20.42781392c-50.87535408-12.81592889-98.37196325-34.99136948-141.82961303-63.69128296-28.15620741-18.52484267-54.91431348-39.26334578-78.68203615-63.73011912a38.83614815 38.83614815 0 0 1-4.50499319-48.54518517 77.28393482 77.28393482 0 0 0 2.56318578-81.8666003A76.93440948 76.93440948 0 0 0 123.63851852 553.869312a76.23535882 76.23535882 0 0 0-20.23363319-1.55344592 38.25360592 38.25360592 0 0 1-39.80705185-28.11737126A464.98520178 464.98520178 0 0 1 45.96622222 396.81592889c0-43.22463289 5.90309452-86.0609043 17.63161126-127.26605748a38.7196397 38.7196397 0 0 1 39.80705185-28.15620741c6.87399822 0.38836148 13.67032415-0.27185303 20.23363319-1.59228208a77.40044325 77.40044325 0 0 0 49.43841659-118.99395792 38.83614815 38.83614815 0 0 1 4.50499319-48.54518518c23.76772267-24.46677333 50.52582875-45.20527645 78.6432-63.76895527 43.49648592-28.73874963 90.99309511-50.87535408 141.86844918-63.61361066a38.75847585 38.75847585 0 0 1 44.27320889 20.42781393A77.24509867 77.24509867 0 0 0 512 8.454447409999943c29.74848948 0 56.42892325-16.54419911 69.63321363-43.18579674a38.83614815 38.83614815 0 0 1 44.27320889-20.42781392c50.87535408 12.73825659 98.37196325 34.91369718 141.82961303 63.61361066 28.15620741 18.56367882 54.91431348 39.30218192 78.68203615 63.80779141a38.83614815 38.83614815 0 0 1 4.46615705 48.50634903 77.28393482 77.28393482 0 0 0-2.56318578 81.8666003c11.41782755 19.80643555 30.3310317 33.01072592 52.04043851 37.28270222a79.22574222 79.22574222 0 0 0 20.19479704 1.43693748c18.25298963-1.08741215 34.83602489 10.60226845 39.845888 28.1562074A466.81050075 466.81050075 0 0 1 978.03377778 396.81592889c0 43.26346903-5.94193067 86.09974045-17.63161126 127.34372978"  horiz-adv-x="1024" />

    
    <glyph glyph-name="xiangzuo" unicode="&#59143;" d="M728.54414221 803.73418667q7.38986667-6.84487111 7.39100445-17.07576889t-7.97354667-18.20444444l-391.39555555-391.39555556 389.13820444-389.13820444q1.12867555-1.12867555 2.29489778-3.42243556 7.97240889-6.84487111 7.97354667-17.07576889t-7.39100445-17.07576889-17.62190222-6.84487111-17.07576889 6.84487111l-2.29376 2.29376h-1.12753778l-406.17756444 407.34264889q-6.84487111 6.84487111-6.84487111 17.07576889t6.84487111 17.07576889l406.17756444 407.34264889 1.12867556-1.12867556q1.12867555 2.29376 2.29489778 3.42243556 6.84487111 6.84487111 17.07576888 6.84487111t17.62190223-6.84487111z"  horiz-adv-x="1024" />

    
    <glyph glyph-name="zhankai" unicode="&#58880;" d="M35.2 742.4c0 21.97333333 17.81333333 39.78666667 39.78666667 39.78666667h876.05333333c21.97333333 0 39.78666667-17.81333333 39.78666667-39.78666667 0-21.97333333-17.81333333-39.78666667-39.78666667-39.78666667H74.98666667C53.01333333 702.6133333299999 35.2 720.2133333300001 35.2 742.4z m0-358.4c0 21.97333333 17.92 39.78666667 40.10666667 39.78666667h570.45333333c22.18666667 0 40.10666667-17.70666667 40.10666667-39.78666667 0-21.97333333-17.92-39.78666667-40.10666667-39.78666667H75.30666667c-10.56-0.10666667-20.8 4.05333333-28.37333334 11.62666667-7.46666667 7.36-11.73333333 17.6-11.73333333 28.16z m0-358.4c0 21.97333333 17.81333333 39.78666667 39.78666667 39.78666667h876.05333333c21.97333333 0 39.78666667-17.81333333 39.78666667-39.78666667s-17.81333333-39.78666667-39.78666667-39.78666667H74.98666667C53.01333333-14.186666670000022 35.2 3.4133333300000004 35.2 25.600000000000023z m709.97333333 483.52c-15.04 15.57333333-12.69333333 39.36 2.66666667 54.72 15.36 15.36 38.08 15.57333333 53.65333333 0.53333333l177.81333334-152.21333333c15.57333333-15.57333333 15.57333333-40.74666667 0-56.32L801.49333333 203.62666666999996c-15.57333333-15.04-40.42666667-14.82666667-55.78666666 0.53333333-15.36 15.36-15.57333333 40.21333333-0.53333334 55.78666667L894.82666667 384 745.17333333 509.12z"  horiz-adv-x="1024" />

    
    <glyph glyph-name="activity_fill" unicode="&#58881;" d="M850.19812295 805.6075776H699.70804963V824.43722525c0 20.74203363-16.91726165 37.65929529-37.65929528 37.65929528-20.74203363 0-37.65929529-16.91726165-37.65929529-37.65929528v-18.82964765H398.43368846V824.43722525c0 20.74203363-16.91726165 37.65929529-37.65929529 37.65929528-20.74203363 0-37.65929529-16.91726165-37.65929528-37.65929528v-18.82964765H172.18370333c-41.33696057 0-75.02437717-35.30558919-75.02437718-78.70204245v-109.59443286h828.50449408v109.59443286c0 43.39645326-33.83452331 78.70204245-75.46569728 78.70204245zM662.04875435 391.35533056c20.74203363 0 37.65929529-16.91726165 37.65929528-37.65929415 0-20.74203363-16.91726165-37.65929529-37.65929528-37.65929529H360.77439317c-20.74203363 0-37.65929529 16.91726165-37.65929528 37.65929529 0 20.74203363 16.91726165 37.65929529 37.65929528 37.65929415H662.04875435M323.11509789 165.39955997000004c0 20.74203363 16.91726165 37.65929529 37.65929528 37.65929528H662.04875435c20.74203363 0 37.65929529-16.91726165 37.65929528-37.65929528 0-20.74203363-16.91726165-37.65929529-37.65929528-37.6592953H360.77439317c-20.74203363 0-37.65929529 16.91726165-37.65929528 37.6592953m564.88942705 376.59295174H97.15932615v-561.50597518c0-43.39645326 33.68741661-78.70204245 75.02437718-78.70204245h678.45573973c41.33696057 0 75.02437717 35.30558919 75.02437717 78.70204245V541.9925117099999h-37.65929529"  horiz-adv-x="1024" />

    
    <glyph glyph-name="youxiang" unicode="&#58954;" d="M999.053 667.23000001v-545.92599999c0-5.447-0.655-10.864-1.756-16.2l-0.016-0.07300001c-0.06-0.296-0.122-0.593-0.184-0.88999999-7.778-37.14-40.614-63.69-78.561-63.69H121.942c-27.905 0-54.733 11.593-73.253 32.46799999a111.43 111.43 0 0 0-1.564 1.80100001 89.327 89.327 0 0 0-3.661 4.611c-11.633 15.685-17.638 34.838-17.638 54.366V652.35600001c0 30.84 20.01 58.209 49.48 67.297l0.729 0.222 0.196 0.06c11.293 3.383 23.052 4.948 34.842 4.94800001h839.57c1.287-0.484 2.535-1.194 3.864-1.419 24.205-4.083 38.525-18.16 43.015-42.29300001l0.01-0.048c0.876-4.59 1.52-9.22 1.52-13.893zM512.439 314.93800001L941.101 675.7000000099999c-62.868 3.666-844.296 1.513-853.212-2.41l424.55-358.352z m127.16 42.903c-36.51-30.773-72.436-61.07-108.38-91.342-13.063-11-24.363-11.08-37.257-0.23-15.322 12.892-30.581 25.859-45.879 38.78-20.147 17.017-40.305 34.024-60.69 51.23000001-95.139-88.196-189.838-175.984-284.536-263.77400001l0.986-2.19999999H933.84c-98.34 89.414-195.967 178.18-294.24 267.53599999zM349.922 387.99000001c-91.952 77.687-182.939 154.559-274.95 232.29800001V133.14000001l274.95 254.85z m327.29 1.53800001L950.03 141.51500002v477.84999999L677.214 389.52900001z"  horiz-adv-x="1024" />

    
    <glyph glyph-name="tihuan" unicode="&#58923;" d="M627.56977778 784.31118222c111.18364445-11.19232 200.50944-78.12096 219.49098667-192.97166222h-64.32768l103.82563555-154.77987555 104.01792 154.70819555h-71.75736889C899.83658667 745.96352 782.73422222 846.60224 634.90389333 860.89841778c-20.41969778 1.60654222-39.49795555-15.9744-39.49795555-38.33514667 1.34144-19.17383111 14.52373333-36.58524445 32.16384-38.25208889zM466.66638222 862.57664H105.09767111c-20.43221333 0-36.56248889-17.56728889-36.56248889-39.92917333v-344.56462222c0-22.36188445 16.04608-39.84611555 36.56248889-39.84611556h361.41283556c20.50389333 0 36.54997333 17.56728889 36.54997333 39.92917333V822.56327111c0 22.36188445-16.04608 39.94168889-36.54997333 39.94168889h0.15587555v0.07168z m-70.40455111-877.43943111c-124.35342222 11.16842667-219.49098667 94.16817778-223.96131556 231.28291556h68.7980089l-103.75395556 154.80490666-103.92120889-154.63651556h68.79800889c2.87630222-177.14062222 127.22972445-291.99246222 286.86336-307.95434666 20.43221333-1.62929778 39.51047111 15.96188445 39.51047111 38.32490666 0.29923555 19.03047111-13.44512 35.39854222-32.24803555 38.3237689l-0.08533334-0.14563556z m523.99445334 346.23032889c19.00657778 0 36.47943111-17.64010667 36.4794311-39.92917333v-346.15751112c0-22.29020445-16.03470222-39.85749333-36.54997333-39.85749333H558.78428445c-20.61198222 0-36.57500445 17.56728889-36.57500445 39.92917333V291.43836445c0 22.19349333 15.96188445 39.8336 36.57500445 39.8336h361.472v0.09557333z m-53.46986667-63.96700445H611.94353778c-14.47708445 0-25.78887111-12.46321778-25.78887111-28.11335111v-244.17735111c0-15.72295111 11.31178667-28.18503111 25.78887111-28.18503111h254.91456c14.45205333 0 25.78887111 12.46208 25.78887111 28.18503111V239.28718221999998c0 15.65013333-12.29596445 28.11335111-25.69216 28.11335111h-0.16839111z m-453.27928889 531.92704h0.08419556c13.40984889 0 25.77635555-12.46321778 25.69329777-28.11335111v-244.24903111c0-15.73432889-11.32430222-28.18503111-25.77635555-28.18503111h-255.01013334c-14.45205333 0-25.77635555 12.45070222-25.77635555 28.18503111V771.21422222c0 15.65013333 11.32430222 28.11335111 25.77635555 28.11335111h255.00899556z"  horiz-adv-x="1024" />

    
    <glyph glyph-name="shouqi" unicode="&#59178;" d="M988.8 25.600000000000023c0-21.97333333-17.81333333-39.78666667-39.78666667-39.78666667l-876.05333333 0c-21.97333333 0-39.78666667 17.81333333-39.78666667 39.78666667 0 21.97333333 17.81333333 39.78666667 39.78666667 39.78666667L949.01333333 65.38666666999995C970.98666667 65.38666666999995 988.8 47.786666670000045 988.8 25.600000000000023z m0 358.4c0-21.97333333-17.92-39.78666667-40.10666667-39.78666667l-570.45333333 0c-22.18666666 0-40.10666667 17.70666667-40.10666666 39.78666667 0 21.97333333 17.92 39.78666667 40.10666666 39.78666667L948.69333333 423.78666667c10.56 0.10666668 20.79999999-4.05333333 28.37333334-11.62666667 7.46666667-7.35999999 11.73333332-17.6 11.73333333-28.16z m0 358.4c0-21.97333333-17.81333333-39.78666667-39.78666667-39.78666667l-876.05333333 0c-21.97333333 0-39.78666667 17.81333333-39.78666667 39.78666667s17.81333333 39.78666667 39.78666667 39.78666667L949.01333333 782.18666667C970.98666667 782.18666667 988.8 764.58666667 988.8 742.4z m-709.97333333-483.52c15.04-15.57333333 12.69333333-39.36-2.66666667-54.71999999-15.36-15.36-38.08-15.57333333-53.65333333-0.53333334l-177.81333334 152.21333333c-15.57333333 15.57333333-15.57333333 40.74666667 0 56.32L222.50666667 564.3733333299999c15.57333333 15.04 40.42666667 14.82666667 55.78666666-0.53333333 15.36-15.36 15.57333333-40.21333333 0.53333334-55.78666666L129.17333333 384 278.82666667 258.88z"  horiz-adv-x="1024" />

    
    <glyph glyph-name="tingzhen" unicode="&#59821;" d="M763.7568 803.0784c-17.66528 0-31.98976-14.32448-31.98976-31.98976 0-17.6704 14.32448-31.98976 31.98976-31.98976 42.83008 0 77.68064-35.70048 77.68064-79.57504v-591.3344c0-43.87456-34.85056-79.57504-77.68064-79.57504H259.26144c-42.82496 0-77.6896 35.71456-77.6896 79.57504v591.3344c0 43.87456 34.84416 79.57504 77.6896 79.57504a31.99744 31.99744 0 0 1 28.31488 15.77984 32.01024 32.01024 0 0 1 0 32.41472 32.00512 32.00512 0 0 1-28.31488 15.78496c-78.11968 0-141.65504-64.40448-141.65504-143.55456v-591.3344c0-79.13472 63.55456-143.55456 141.65504-143.55456h504.49536c78.11968 0 141.66016 64.41984 141.66016 143.55456v591.3344c-0.00128 79.15008-63.55584 143.55456-141.66016 143.55456z m0 0M763.776 803.0784c-17.6704 0-31.98976-14.32448-31.98976-31.98976 0-17.6704 14.32064-31.98976 31.98976-31.98976 42.82496 0 77.67552-35.70048 77.67552-79.57504v-345.72032c0-17.68064 14.30528-31.97952 31.97952-31.97952 17.68064 0 31.98464 14.30016 31.98464 31.97952V659.5238400000001c0 79.15008-63.55456 143.55456-141.63968 143.55456zM415.552 670.89408h191.91936c47.04 0 85.30944 38.25408 85.30944 85.29408 0 47.03488-38.26944 85.31072-85.30944 85.31072H415.552c-47.04 0-85.31584-38.27584-85.31584-85.31072 0-47.04 38.27584-85.29408 85.31584-85.29408z m0 106.624h191.91936c11.5648 0 21.32992-9.76384 21.32992-21.32992 0-11.56992-9.76512-21.31456-21.32992-21.31456H415.552c-11.5712 0-21.33504 9.76512-21.33504 21.31456 0 11.55072 9.76384 21.32992 21.33504 21.32992zM441.6 190.72000000000003c0-8.48256-6.87744-15.36-15.36-15.36h-48.64c-8.48256 0-15.36 6.87744-15.36 15.36V491.52c0 8.48256 6.87744 15.36 15.36 15.36h48.64c8.48256 0 15.36-6.87744 15.36-15.36v-300.8zM655.36 190.72000000000003c0-8.48256-6.87744-15.36-15.36-15.36h-48.64c-8.48256 0-15.36 6.87744-15.36 15.36V491.52c0 8.48256 6.87744 15.36 15.36 15.36h48.64c8.48256 0 15.36-6.87744 15.36-15.36v-300.8z"  horiz-adv-x="1024" />

    


  </font>
</defs>
</svg>
